<mxfile host="app.diagrams.net" modified="2023-04-22T09:06:13.041Z" agent="Mozilla/5.0 (Windows NT 10.0; Win64; x64) AppleWebKit/537.36 (KHTML, like Gecko) Chrome/112.0.0.0 Safari/537.36" etag="pXbEmzRfCzw7O0Vp4y1q" version="21.1.9" type="device">
  <diagram name="PÃ¡gina-1" id="1oXODAR04kZCbPPPJqvs">
    <mxGraphModel dx="1687" dy="981" grid="1" gridSize="10" guides="1" tooltips="1" connect="1" arrows="1" fold="1" page="1" pageScale="1" pageWidth="827" pageHeight="1169" math="0" shadow="0">
      <root>
        <mxCell id="0" />
        <mxCell id="1" parent="0" />
        <mxCell id="l98Kh_5DMOMrPFNrD7ur-1" value="" style="rounded=0;whiteSpace=wrap;html=1;strokeColor=#000000;strokeWidth=2;fontSize=11;fontColor=#000000;fillColor=#ffffff;gradientColor=none;" vertex="1" parent="1">
          <mxGeometry x="459" y="270" width="230" height="130" as="geometry" />
        </mxCell>
        <mxCell id="l98Kh_5DMOMrPFNrD7ur-2" style="edgeStyle=orthogonalEdgeStyle;rounded=0;orthogonalLoop=1;jettySize=auto;html=1;exitX=0;exitY=0.5;exitDx=0;exitDy=0;fontSize=14;fontColor=#000000;" edge="1" parent="1" source="l98Kh_5DMOMrPFNrD7ur-6" target="l98Kh_5DMOMrPFNrD7ur-31">
          <mxGeometry relative="1" as="geometry" />
        </mxCell>
        <mxCell id="l98Kh_5DMOMrPFNrD7ur-3" value="&lt;font style=&quot;font-size: 11px;&quot;&gt;(0:N)&lt;/font&gt;" style="edgeLabel;html=1;align=center;verticalAlign=middle;resizable=0;points=[];fontSize=14;fontColor=#000000;" vertex="1" connectable="0" parent="l98Kh_5DMOMrPFNrD7ur-2">
          <mxGeometry x="-0.7861" relative="1" as="geometry">
            <mxPoint x="-8" y="-2" as="offset" />
          </mxGeometry>
        </mxCell>
        <mxCell id="l98Kh_5DMOMrPFNrD7ur-4" style="edgeStyle=orthogonalEdgeStyle;rounded=0;orthogonalLoop=1;jettySize=auto;html=1;exitX=1;exitY=0.5;exitDx=0;exitDy=0;fontSize=14;fontColor=#000000;" edge="1" parent="1" source="l98Kh_5DMOMrPFNrD7ur-6" target="l98Kh_5DMOMrPFNrD7ur-42">
          <mxGeometry relative="1" as="geometry" />
        </mxCell>
        <mxCell id="l98Kh_5DMOMrPFNrD7ur-5" value="(1:N)" style="edgeLabel;html=1;align=center;verticalAlign=middle;resizable=0;points=[];fontSize=11;fontColor=#000000;" vertex="1" connectable="0" parent="l98Kh_5DMOMrPFNrD7ur-4">
          <mxGeometry x="-0.6677" y="-1" relative="1" as="geometry">
            <mxPoint x="-10" y="-2" as="offset" />
          </mxGeometry>
        </mxCell>
        <mxCell id="l98Kh_5DMOMrPFNrD7ur-6" value="&lt;font style=&quot;font-size: 18px;&quot;&gt;User&lt;/font&gt;" style="rounded=1;whiteSpace=wrap;html=1;" vertex="1" parent="1">
          <mxGeometry x="89" y="130" width="120" height="40" as="geometry" />
        </mxCell>
        <mxCell id="l98Kh_5DMOMrPFNrD7ur-7" style="edgeStyle=orthogonalEdgeStyle;rounded=0;orthogonalLoop=1;jettySize=auto;html=1;exitX=0;exitY=0.5;exitDx=0;exitDy=0;entryX=1;entryY=0.5;entryDx=0;entryDy=0;fontSize=14;fontColor=#000000;" edge="1" parent="1" source="l98Kh_5DMOMrPFNrD7ur-9" target="l98Kh_5DMOMrPFNrD7ur-42">
          <mxGeometry relative="1" as="geometry" />
        </mxCell>
        <mxCell id="l98Kh_5DMOMrPFNrD7ur-8" value="(1:N)" style="edgeLabel;html=1;align=center;verticalAlign=middle;resizable=0;points=[];fontSize=11;fontColor=#000000;" vertex="1" connectable="0" parent="l98Kh_5DMOMrPFNrD7ur-7">
          <mxGeometry x="-0.888" y="1" relative="1" as="geometry">
            <mxPoint x="-5" y="-2" as="offset" />
          </mxGeometry>
        </mxCell>
        <mxCell id="l98Kh_5DMOMrPFNrD7ur-9" value="&lt;font style=&quot;font-size: 18px;&quot;&gt;Permission&lt;/font&gt;" style="rounded=1;whiteSpace=wrap;html=1;" vertex="1" parent="1">
          <mxGeometry x="649" y="130" width="120" height="40" as="geometry" />
        </mxCell>
        <mxCell id="l98Kh_5DMOMrPFNrD7ur-10" value="&lt;font style=&quot;font-size: 18px;&quot;&gt;User_Permission&lt;/font&gt;" style="rounded=1;whiteSpace=wrap;html=1;" vertex="1" parent="1">
          <mxGeometry x="540" y="340" width="139" height="40" as="geometry" />
        </mxCell>
        <mxCell id="l98Kh_5DMOMrPFNrD7ur-11" style="edgeStyle=orthogonalEdgeStyle;rounded=0;orthogonalLoop=1;jettySize=auto;html=1;exitX=1;exitY=1;exitDx=0;exitDy=0;entryX=0;entryY=0;entryDx=0;entryDy=0;strokeColor=default;fontSize=11;fontColor=#000000;endArrow=none;endFill=0;" edge="1" parent="1" source="l98Kh_5DMOMrPFNrD7ur-12" target="l98Kh_5DMOMrPFNrD7ur-6">
          <mxGeometry relative="1" as="geometry" />
        </mxCell>
        <mxCell id="l98Kh_5DMOMrPFNrD7ur-12" value="&lt;font color=&quot;#fafafa&quot; style=&quot;font-size: 14px;&quot;&gt;Id&lt;/font&gt;" style="ellipse;whiteSpace=wrap;html=1;fontSize=18;fillColor=#30436e;gradientColor=#f46767;strokeColor=#000000;strokeWidth=4;" vertex="1" parent="1">
          <mxGeometry x="39" y="90" width="30" height="30" as="geometry" />
        </mxCell>
        <mxCell id="l98Kh_5DMOMrPFNrD7ur-13" style="edgeStyle=orthogonalEdgeStyle;rounded=0;orthogonalLoop=1;jettySize=auto;html=1;exitX=0.5;exitY=1;exitDx=0;exitDy=0;entryX=0.816;entryY=-0.053;entryDx=0;entryDy=0;entryPerimeter=0;strokeColor=default;fontSize=11;fontColor=#000000;endArrow=none;endFill=0;" edge="1" parent="1" source="l98Kh_5DMOMrPFNrD7ur-14" target="l98Kh_5DMOMrPFNrD7ur-21">
          <mxGeometry relative="1" as="geometry" />
        </mxCell>
        <mxCell id="l98Kh_5DMOMrPFNrD7ur-14" value="&lt;font color=&quot;#000000&quot;&gt;Name&lt;/font&gt;" style="ellipse;whiteSpace=wrap;html=1;fontSize=14;fontColor=#FAFAFA;fillColor=#FFFFFF;" vertex="1" parent="1">
          <mxGeometry x="159" y="330" width="50" height="30" as="geometry" />
        </mxCell>
        <mxCell id="l98Kh_5DMOMrPFNrD7ur-15" style="edgeStyle=orthogonalEdgeStyle;rounded=0;orthogonalLoop=1;jettySize=auto;html=1;exitX=0.5;exitY=1;exitDx=0;exitDy=0;entryX=0.75;entryY=0;entryDx=0;entryDy=0;strokeColor=default;fontSize=11;fontColor=#000000;endArrow=none;endFill=0;" edge="1" parent="1" source="l98Kh_5DMOMrPFNrD7ur-16" target="l98Kh_5DMOMrPFNrD7ur-6">
          <mxGeometry relative="1" as="geometry" />
        </mxCell>
        <mxCell id="l98Kh_5DMOMrPFNrD7ur-16" value="&lt;font color=&quot;#000000&quot;&gt;LastName&lt;/font&gt;" style="ellipse;whiteSpace=wrap;html=1;fontSize=14;fontColor=#FAFAFA;fillColor=#FFFFFF;" vertex="1" parent="1">
          <mxGeometry x="129" y="60" width="70" height="30" as="geometry" />
        </mxCell>
        <mxCell id="l98Kh_5DMOMrPFNrD7ur-17" style="edgeStyle=orthogonalEdgeStyle;rounded=0;orthogonalLoop=1;jettySize=auto;html=1;exitX=1;exitY=0.5;exitDx=0;exitDy=0;entryX=0.5;entryY=0;entryDx=0;entryDy=0;strokeColor=default;fontSize=11;fontColor=#000000;endArrow=none;endFill=0;" edge="1" parent="1" source="l98Kh_5DMOMrPFNrD7ur-18" target="l98Kh_5DMOMrPFNrD7ur-6">
          <mxGeometry relative="1" as="geometry" />
        </mxCell>
        <mxCell id="l98Kh_5DMOMrPFNrD7ur-18" value="&lt;font color=&quot;#000000&quot;&gt;Age&lt;/font&gt;" style="ellipse;whiteSpace=wrap;html=1;fontSize=14;fontColor=#FAFAFA;fillColor=#FFFFFF;" vertex="1" parent="1">
          <mxGeometry x="89" y="90" width="35" height="30" as="geometry" />
        </mxCell>
        <mxCell id="l98Kh_5DMOMrPFNrD7ur-19" style="edgeStyle=orthogonalEdgeStyle;rounded=0;orthogonalLoop=1;jettySize=auto;html=1;exitX=0;exitY=0.5;exitDx=0;exitDy=0;entryX=0.5;entryY=1;entryDx=0;entryDy=0;fontSize=14;fontColor=#000000;" edge="1" parent="1" source="l98Kh_5DMOMrPFNrD7ur-21" target="l98Kh_5DMOMrPFNrD7ur-31">
          <mxGeometry relative="1" as="geometry">
            <Array as="points">
              <mxPoint x="19" y="390" />
              <mxPoint x="19" y="290" />
              <mxPoint x="49" y="290" />
            </Array>
          </mxGeometry>
        </mxCell>
        <mxCell id="l98Kh_5DMOMrPFNrD7ur-20" value="(1:1)" style="edgeLabel;html=1;align=center;verticalAlign=middle;resizable=0;points=[];fontSize=11;fontColor=#000000;" vertex="1" connectable="0" parent="l98Kh_5DMOMrPFNrD7ur-19">
          <mxGeometry x="-0.7614" y="2" relative="1" as="geometry">
            <mxPoint x="6" y="-2" as="offset" />
          </mxGeometry>
        </mxCell>
        <mxCell id="l98Kh_5DMOMrPFNrD7ur-21" value="&lt;span style=&quot;font-size: 18px;&quot;&gt;Membership&lt;/span&gt;" style="rounded=1;whiteSpace=wrap;html=1;" vertex="1" parent="1">
          <mxGeometry x="89" y="370" width="120" height="40" as="geometry" />
        </mxCell>
        <mxCell id="l98Kh_5DMOMrPFNrD7ur-22" style="edgeStyle=orthogonalEdgeStyle;rounded=0;orthogonalLoop=1;jettySize=auto;html=1;exitX=1;exitY=1;exitDx=0;exitDy=0;entryX=0;entryY=0;entryDx=0;entryDy=0;strokeColor=default;fontSize=11;fontColor=#000000;endArrow=none;endFill=0;" edge="1" parent="1" source="l98Kh_5DMOMrPFNrD7ur-23" target="l98Kh_5DMOMrPFNrD7ur-21">
          <mxGeometry relative="1" as="geometry" />
        </mxCell>
        <mxCell id="l98Kh_5DMOMrPFNrD7ur-23" value="&lt;font color=&quot;#fafafa&quot; style=&quot;font-size: 14px;&quot;&gt;Id&lt;/font&gt;" style="ellipse;whiteSpace=wrap;html=1;fontSize=18;fillColor=#30436e;gradientColor=#f46767;strokeColor=#000000;strokeWidth=4;" vertex="1" parent="1">
          <mxGeometry x="39" y="330" width="30" height="30" as="geometry" />
        </mxCell>
        <mxCell id="l98Kh_5DMOMrPFNrD7ur-24" value="&lt;font color=&quot;#fafafa&quot;&gt;&lt;span style=&quot;font-size: 14px;&quot;&gt;Id_User&lt;/span&gt;&lt;/font&gt;" style="ellipse;whiteSpace=wrap;html=1;fontSize=18;fillColor=#30436e;gradientColor=#f46767;strokeColor=#000000;strokeWidth=4;" vertex="1" parent="1">
          <mxGeometry x="469" y="290" width="70" height="30" as="geometry" />
        </mxCell>
        <mxCell id="l98Kh_5DMOMrPFNrD7ur-25" style="edgeStyle=orthogonalEdgeStyle;rounded=0;orthogonalLoop=1;jettySize=auto;html=1;exitX=1;exitY=1;exitDx=0;exitDy=0;entryX=0;entryY=0;entryDx=0;entryDy=0;strokeColor=default;fontSize=11;fontColor=#000000;endArrow=none;endFill=0;" edge="1" parent="1" source="l98Kh_5DMOMrPFNrD7ur-26" target="l98Kh_5DMOMrPFNrD7ur-9">
          <mxGeometry relative="1" as="geometry" />
        </mxCell>
        <mxCell id="l98Kh_5DMOMrPFNrD7ur-26" value="&lt;font color=&quot;#fafafa&quot; style=&quot;font-size: 14px;&quot;&gt;Id&lt;/font&gt;" style="ellipse;whiteSpace=wrap;html=1;fontSize=18;fillColor=#30436e;gradientColor=#f46767;strokeColor=#000000;strokeWidth=4;" vertex="1" parent="1">
          <mxGeometry x="599" y="90" width="30" height="30" as="geometry" />
        </mxCell>
        <mxCell id="l98Kh_5DMOMrPFNrD7ur-27" style="edgeStyle=orthogonalEdgeStyle;rounded=0;orthogonalLoop=1;jettySize=auto;html=1;exitX=0.5;exitY=0;exitDx=0;exitDy=0;entryX=0.25;entryY=1;entryDx=0;entryDy=0;strokeColor=default;fontSize=11;fontColor=#000000;endArrow=none;endFill=0;" edge="1" parent="1" source="l98Kh_5DMOMrPFNrD7ur-28" target="l98Kh_5DMOMrPFNrD7ur-6">
          <mxGeometry relative="1" as="geometry" />
        </mxCell>
        <mxCell id="l98Kh_5DMOMrPFNrD7ur-28" value="&lt;font color=&quot;#000000&quot;&gt;Email&lt;/font&gt;" style="ellipse;whiteSpace=wrap;html=1;fontSize=14;fontColor=#FAFAFA;fillColor=#FFFFFF;" vertex="1" parent="1">
          <mxGeometry x="89" y="210" width="40" height="30" as="geometry" />
        </mxCell>
        <mxCell id="l98Kh_5DMOMrPFNrD7ur-29" style="edgeStyle=orthogonalEdgeStyle;rounded=0;orthogonalLoop=1;jettySize=auto;html=1;exitX=0.5;exitY=0;exitDx=0;exitDy=0;entryX=0.5;entryY=1;entryDx=0;entryDy=0;strokeColor=default;fontSize=11;fontColor=#000000;endArrow=none;endFill=0;" edge="1" parent="1" source="l98Kh_5DMOMrPFNrD7ur-30" target="l98Kh_5DMOMrPFNrD7ur-6">
          <mxGeometry relative="1" as="geometry" />
        </mxCell>
        <mxCell id="l98Kh_5DMOMrPFNrD7ur-30" value="&lt;font color=&quot;#000000&quot;&gt;Password&lt;/font&gt;" style="ellipse;whiteSpace=wrap;html=1;fontSize=14;fontColor=#FAFAFA;fillColor=#FFFFFF;" vertex="1" parent="1">
          <mxGeometry x="114" y="250" width="70" height="30" as="geometry" />
        </mxCell>
        <mxCell id="l98Kh_5DMOMrPFNrD7ur-31" value="Tiene" style="rhombus;whiteSpace=wrap;html=1;strokeColor=#000000;strokeWidth=2;fontSize=14;fontColor=#000000;fillColor=#ffffff;gradientColor=none;" vertex="1" parent="1">
          <mxGeometry x="19" y="220" width="60" height="50" as="geometry" />
        </mxCell>
        <mxCell id="l98Kh_5DMOMrPFNrD7ur-32" style="edgeStyle=orthogonalEdgeStyle;rounded=0;orthogonalLoop=1;jettySize=auto;html=1;exitX=0.5;exitY=1;exitDx=0;exitDy=0;entryX=1;entryY=0;entryDx=0;entryDy=0;fontSize=11;fontColor=#000000;strokeColor=default;endArrow=none;endFill=0;" edge="1" parent="1" source="l98Kh_5DMOMrPFNrD7ur-33" target="l98Kh_5DMOMrPFNrD7ur-6">
          <mxGeometry relative="1" as="geometry" />
        </mxCell>
        <mxCell id="l98Kh_5DMOMrPFNrD7ur-33" value="&lt;font color=&quot;#000000&quot;&gt;Name&lt;/font&gt;" style="ellipse;whiteSpace=wrap;html=1;fontSize=14;fontColor=#FAFAFA;fillColor=#FFFFFF;" vertex="1" parent="1">
          <mxGeometry x="199" y="40" width="60" height="30" as="geometry" />
        </mxCell>
        <mxCell id="l98Kh_5DMOMrPFNrD7ur-34" style="edgeStyle=orthogonalEdgeStyle;rounded=0;orthogonalLoop=1;jettySize=auto;html=1;exitX=0.5;exitY=1;exitDx=0;exitDy=0;entryX=0.25;entryY=0;entryDx=0;entryDy=0;strokeColor=default;fontSize=11;fontColor=#000000;endArrow=none;endFill=0;" edge="1" parent="1" source="l98Kh_5DMOMrPFNrD7ur-35" target="l98Kh_5DMOMrPFNrD7ur-21">
          <mxGeometry relative="1" as="geometry" />
        </mxCell>
        <mxCell id="l98Kh_5DMOMrPFNrD7ur-35" value="&lt;font color=&quot;#000000&quot;&gt;Price&lt;/font&gt;" style="ellipse;whiteSpace=wrap;html=1;fontSize=14;fontColor=#FAFAFA;fillColor=#FFFFFF;" vertex="1" parent="1">
          <mxGeometry x="99" y="330" width="40" height="30" as="geometry" />
        </mxCell>
        <mxCell id="l98Kh_5DMOMrPFNrD7ur-36" style="edgeStyle=orthogonalEdgeStyle;rounded=0;orthogonalLoop=1;jettySize=auto;html=1;exitX=0.5;exitY=0;exitDx=0;exitDy=0;entryX=0.5;entryY=1;entryDx=0;entryDy=0;strokeColor=default;fontSize=11;fontColor=#000000;endArrow=none;endFill=0;" edge="1" parent="1" source="l98Kh_5DMOMrPFNrD7ur-37" target="l98Kh_5DMOMrPFNrD7ur-21">
          <mxGeometry relative="1" as="geometry" />
        </mxCell>
        <mxCell id="l98Kh_5DMOMrPFNrD7ur-37" value="&lt;font color=&quot;#000000&quot;&gt;Description&lt;/font&gt;" style="ellipse;whiteSpace=wrap;html=1;fontSize=14;fontColor=#FAFAFA;fillColor=#FFFFFF;" vertex="1" parent="1">
          <mxGeometry x="109" y="420" width="80" height="30" as="geometry" />
        </mxCell>
        <mxCell id="l98Kh_5DMOMrPFNrD7ur-38" style="edgeStyle=orthogonalEdgeStyle;rounded=0;orthogonalLoop=1;jettySize=auto;html=1;exitX=0.5;exitY=1;exitDx=0;exitDy=0;entryX=0.5;entryY=0;entryDx=0;entryDy=0;strokeColor=default;fontSize=11;fontColor=#000000;endArrow=none;endFill=0;" edge="1" parent="1" source="l98Kh_5DMOMrPFNrD7ur-39" target="l98Kh_5DMOMrPFNrD7ur-9">
          <mxGeometry relative="1" as="geometry" />
        </mxCell>
        <mxCell id="l98Kh_5DMOMrPFNrD7ur-39" value="&lt;font color=&quot;#000000&quot;&gt;Name&lt;/font&gt;" style="ellipse;whiteSpace=wrap;html=1;fontSize=14;fontColor=#FAFAFA;fillColor=#FFFFFF;" vertex="1" parent="1">
          <mxGeometry x="679" y="90" width="50" height="30" as="geometry" />
        </mxCell>
        <mxCell id="l98Kh_5DMOMrPFNrD7ur-40" style="edgeStyle=orthogonalEdgeStyle;rounded=0;orthogonalLoop=1;jettySize=auto;html=1;exitX=0.5;exitY=1;exitDx=0;exitDy=0;entryX=1;entryY=0;entryDx=0;entryDy=0;strokeColor=default;fontSize=11;fontColor=#000000;endArrow=none;endFill=0;" edge="1" parent="1" source="l98Kh_5DMOMrPFNrD7ur-41" target="l98Kh_5DMOMrPFNrD7ur-9">
          <mxGeometry relative="1" as="geometry" />
        </mxCell>
        <mxCell id="l98Kh_5DMOMrPFNrD7ur-41" value="&lt;font color=&quot;#000000&quot;&gt;Description&lt;/font&gt;" style="ellipse;whiteSpace=wrap;html=1;fontSize=14;fontColor=#FAFAFA;fillColor=#FFFFFF;" vertex="1" parent="1">
          <mxGeometry x="729" y="60" width="80" height="30" as="geometry" />
        </mxCell>
        <mxCell id="l98Kh_5DMOMrPFNrD7ur-42" value="Tiene" style="rhombus;whiteSpace=wrap;html=1;strokeColor=#000000;strokeWidth=2;fontSize=14;fontColor=#000000;fillColor=#ffffff;gradientColor=none;" vertex="1" parent="1">
          <mxGeometry x="379" y="125" width="60" height="50" as="geometry" />
        </mxCell>
        <mxCell id="l98Kh_5DMOMrPFNrD7ur-43" value="" style="shape=flexArrow;endArrow=classic;html=1;rounded=0;fontSize=11;fontColor=#000000;exitX=0.5;exitY=1;exitDx=0;exitDy=0;entryX=0;entryY=0;entryDx=0;entryDy=0;" edge="1" parent="1" source="l98Kh_5DMOMrPFNrD7ur-42" target="l98Kh_5DMOMrPFNrD7ur-1">
          <mxGeometry width="50" height="50" relative="1" as="geometry">
            <mxPoint x="419" y="200" as="sourcePoint" />
            <mxPoint x="449" y="250" as="targetPoint" />
          </mxGeometry>
        </mxCell>
        <mxCell id="l98Kh_5DMOMrPFNrD7ur-44" value="&lt;font color=&quot;#fafafa&quot;&gt;&lt;span style=&quot;font-size: 14px;&quot;&gt;Id_Permission&lt;/span&gt;&lt;/font&gt;" style="ellipse;whiteSpace=wrap;html=1;fontSize=18;fillColor=#30436e;gradientColor=#f46767;strokeColor=#000000;strokeWidth=4;" vertex="1" parent="1">
          <mxGeometry x="559" y="290" width="120" height="30" as="geometry" />
        </mxCell>
        <mxCell id="l98Kh_5DMOMrPFNrD7ur-45" style="edgeStyle=orthogonalEdgeStyle;rounded=0;orthogonalLoop=1;jettySize=auto;html=1;exitX=0.5;exitY=1;exitDx=0;exitDy=0;entryX=0.5;entryY=0;entryDx=0;entryDy=0;strokeColor=default;fontSize=11;fontColor=#333333;endArrow=none;endFill=0;" edge="1" parent="1" source="l98Kh_5DMOMrPFNrD7ur-46" target="l98Kh_5DMOMrPFNrD7ur-42">
          <mxGeometry relative="1" as="geometry" />
        </mxCell>
        <mxCell id="l98Kh_5DMOMrPFNrD7ur-46" value="&lt;font color=&quot;#000000&quot;&gt;Level&lt;/font&gt;" style="ellipse;whiteSpace=wrap;html=1;fontSize=14;fontColor=#FAFAFA;fillColor=#FFFFFF;" vertex="1" parent="1">
          <mxGeometry x="385.25" y="70" width="47.5" height="30" as="geometry" />
        </mxCell>
        <mxCell id="l98Kh_5DMOMrPFNrD7ur-47" value="&lt;font style=&quot;font-size: 18px;&quot;&gt;User&lt;/font&gt;" style="swimlane;fontStyle=0;childLayout=stackLayout;horizontal=1;startSize=30;horizontalStack=0;resizeParent=1;resizeParentMax=0;resizeLast=0;collapsible=1;marginBottom=0;whiteSpace=wrap;html=1;" vertex="1" parent="1">
          <mxGeometry x="319" y="560" width="120" height="270" as="geometry" />
        </mxCell>
        <mxCell id="l98Kh_5DMOMrPFNrD7ur-48" value="&lt;font color=&quot;#fafafa&quot;&gt;Id&lt;/font&gt;" style="text;strokeColor=#666666;fillColor=#463e7e;align=left;verticalAlign=middle;spacingLeft=4;spacingRight=4;overflow=hidden;points=[[0,0.5],[1,0.5]];portConstraint=eastwest;rotatable=0;whiteSpace=wrap;html=1;gradientColor=#a95151;" vertex="1" parent="l98Kh_5DMOMrPFNrD7ur-47">
          <mxGeometry y="30" width="120" height="30" as="geometry" />
        </mxCell>
        <mxCell id="l98Kh_5DMOMrPFNrD7ur-49" value="Id_Membership" style="text;strokeColor=#666666;fillColor=#c5c0e8;align=left;verticalAlign=middle;spacingLeft=4;spacingRight=4;overflow=hidden;points=[[0,0.5],[1,0.5]];portConstraint=eastwest;rotatable=0;whiteSpace=wrap;html=1;gradientColor=#b2a4a4;" vertex="1" parent="l98Kh_5DMOMrPFNrD7ur-47">
          <mxGeometry y="60" width="120" height="30" as="geometry" />
        </mxCell>
        <mxCell id="l98Kh_5DMOMrPFNrD7ur-50" value="Name" style="text;strokeColor=none;fillColor=none;align=left;verticalAlign=middle;spacingLeft=4;spacingRight=4;overflow=hidden;points=[[0,0.5],[1,0.5]];portConstraint=eastwest;rotatable=0;whiteSpace=wrap;html=1;" vertex="1" parent="l98Kh_5DMOMrPFNrD7ur-47">
          <mxGeometry y="90" width="120" height="30" as="geometry" />
        </mxCell>
        <mxCell id="l98Kh_5DMOMrPFNrD7ur-51" value="LastName" style="text;strokeColor=none;fillColor=none;align=left;verticalAlign=middle;spacingLeft=4;spacingRight=4;overflow=hidden;points=[[0,0.5],[1,0.5]];portConstraint=eastwest;rotatable=0;whiteSpace=wrap;html=1;" vertex="1" parent="l98Kh_5DMOMrPFNrD7ur-47">
          <mxGeometry y="120" width="120" height="30" as="geometry" />
        </mxCell>
        <mxCell id="l98Kh_5DMOMrPFNrD7ur-52" value="Email" style="text;strokeColor=none;fillColor=none;align=left;verticalAlign=middle;spacingLeft=4;spacingRight=4;overflow=hidden;points=[[0,0.5],[1,0.5]];portConstraint=eastwest;rotatable=0;whiteSpace=wrap;html=1;" vertex="1" parent="l98Kh_5DMOMrPFNrD7ur-47">
          <mxGeometry y="150" width="120" height="30" as="geometry" />
        </mxCell>
        <mxCell id="l98Kh_5DMOMrPFNrD7ur-53" value="Age" style="text;strokeColor=none;fillColor=none;align=left;verticalAlign=middle;spacingLeft=4;spacingRight=4;overflow=hidden;points=[[0,0.5],[1,0.5]];portConstraint=eastwest;rotatable=0;whiteSpace=wrap;html=1;" vertex="1" parent="l98Kh_5DMOMrPFNrD7ur-47">
          <mxGeometry y="180" width="120" height="30" as="geometry" />
        </mxCell>
        <mxCell id="l98Kh_5DMOMrPFNrD7ur-54" value="Country" style="text;strokeColor=none;fillColor=none;align=left;verticalAlign=middle;spacingLeft=4;spacingRight=4;overflow=hidden;points=[[0,0.5],[1,0.5]];portConstraint=eastwest;rotatable=0;whiteSpace=wrap;html=1;" vertex="1" parent="l98Kh_5DMOMrPFNrD7ur-47">
          <mxGeometry y="210" width="120" height="30" as="geometry" />
        </mxCell>
        <mxCell id="l98Kh_5DMOMrPFNrD7ur-55" value="Password (SHA)" style="text;strokeColor=none;fillColor=none;align=left;verticalAlign=middle;spacingLeft=4;spacingRight=4;overflow=hidden;points=[[0,0.5],[1,0.5]];portConstraint=eastwest;rotatable=0;whiteSpace=wrap;html=1;" vertex="1" parent="l98Kh_5DMOMrPFNrD7ur-47">
          <mxGeometry y="240" width="120" height="30" as="geometry" />
        </mxCell>
        <mxCell id="l98Kh_5DMOMrPFNrD7ur-56" value="&lt;font style=&quot;font-size: 18px;&quot;&gt;Membership&lt;/font&gt;" style="swimlane;fontStyle=0;childLayout=stackLayout;horizontal=1;startSize=30;horizontalStack=0;resizeParent=1;resizeParentMax=0;resizeLast=0;collapsible=1;marginBottom=0;whiteSpace=wrap;html=1;" vertex="1" parent="1">
          <mxGeometry x="159" y="560" width="120" height="150" as="geometry" />
        </mxCell>
        <mxCell id="l98Kh_5DMOMrPFNrD7ur-57" value="&lt;font color=&quot;#fafafa&quot;&gt;Id&lt;/font&gt;" style="text;strokeColor=#666666;fillColor=#463e7e;align=left;verticalAlign=middle;spacingLeft=4;spacingRight=4;overflow=hidden;points=[[0,0.5],[1,0.5]];portConstraint=eastwest;rotatable=0;whiteSpace=wrap;html=1;gradientColor=#a95151;" vertex="1" parent="l98Kh_5DMOMrPFNrD7ur-56">
          <mxGeometry y="30" width="120" height="30" as="geometry" />
        </mxCell>
        <mxCell id="l98Kh_5DMOMrPFNrD7ur-58" value="Price" style="text;strokeColor=none;fillColor=none;align=left;verticalAlign=middle;spacingLeft=4;spacingRight=4;overflow=hidden;points=[[0,0.5],[1,0.5]];portConstraint=eastwest;rotatable=0;whiteSpace=wrap;html=1;" vertex="1" parent="l98Kh_5DMOMrPFNrD7ur-56">
          <mxGeometry y="60" width="120" height="30" as="geometry" />
        </mxCell>
        <mxCell id="l98Kh_5DMOMrPFNrD7ur-59" value="Name" style="text;strokeColor=none;fillColor=none;align=left;verticalAlign=middle;spacingLeft=4;spacingRight=4;overflow=hidden;points=[[0,0.5],[1,0.5]];portConstraint=eastwest;rotatable=0;whiteSpace=wrap;html=1;" vertex="1" parent="l98Kh_5DMOMrPFNrD7ur-56">
          <mxGeometry y="90" width="120" height="30" as="geometry" />
        </mxCell>
        <mxCell id="l98Kh_5DMOMrPFNrD7ur-60" value="Description" style="text;strokeColor=none;fillColor=none;align=left;verticalAlign=middle;spacingLeft=4;spacingRight=4;overflow=hidden;points=[[0,0.5],[1,0.5]];portConstraint=eastwest;rotatable=0;whiteSpace=wrap;html=1;" vertex="1" parent="l98Kh_5DMOMrPFNrD7ur-56">
          <mxGeometry y="120" width="120" height="30" as="geometry" />
        </mxCell>
        <mxCell id="l98Kh_5DMOMrPFNrD7ur-61" value="&lt;font style=&quot;font-size: 18px;&quot;&gt;Permission&lt;/font&gt;" style="swimlane;fontStyle=0;childLayout=stackLayout;horizontal=1;startSize=30;horizontalStack=0;resizeParent=1;resizeParentMax=0;resizeLast=0;collapsible=1;marginBottom=0;whiteSpace=wrap;html=1;" vertex="1" parent="1">
          <mxGeometry x="539" y="720" width="120" height="120" as="geometry" />
        </mxCell>
        <mxCell id="l98Kh_5DMOMrPFNrD7ur-62" value="&lt;font color=&quot;#fafafa&quot;&gt;Id&lt;/font&gt;" style="text;strokeColor=#666666;fillColor=#463e7e;align=left;verticalAlign=middle;spacingLeft=4;spacingRight=4;overflow=hidden;points=[[0,0.5],[1,0.5]];portConstraint=eastwest;rotatable=0;whiteSpace=wrap;html=1;gradientColor=#a95151;" vertex="1" parent="l98Kh_5DMOMrPFNrD7ur-61">
          <mxGeometry y="30" width="120" height="30" as="geometry" />
        </mxCell>
        <mxCell id="l98Kh_5DMOMrPFNrD7ur-63" value="Name" style="text;strokeColor=none;fillColor=none;align=left;verticalAlign=middle;spacingLeft=4;spacingRight=4;overflow=hidden;points=[[0,0.5],[1,0.5]];portConstraint=eastwest;rotatable=0;whiteSpace=wrap;html=1;" vertex="1" parent="l98Kh_5DMOMrPFNrD7ur-61">
          <mxGeometry y="60" width="120" height="30" as="geometry" />
        </mxCell>
        <mxCell id="l98Kh_5DMOMrPFNrD7ur-64" value="Description" style="text;strokeColor=none;fillColor=none;align=left;verticalAlign=middle;spacingLeft=4;spacingRight=4;overflow=hidden;points=[[0,0.5],[1,0.5]];portConstraint=eastwest;rotatable=0;whiteSpace=wrap;html=1;" vertex="1" parent="l98Kh_5DMOMrPFNrD7ur-61">
          <mxGeometry y="90" width="120" height="30" as="geometry" />
        </mxCell>
        <mxCell id="l98Kh_5DMOMrPFNrD7ur-65" value="&lt;font style=&quot;font-size: 18px;&quot;&gt;User_Permission&lt;/font&gt;" style="swimlane;fontStyle=0;childLayout=stackLayout;horizontal=1;startSize=30;horizontalStack=0;resizeParent=1;resizeParentMax=0;resizeLast=0;collapsible=1;marginBottom=0;whiteSpace=wrap;html=1;" vertex="1" parent="1">
          <mxGeometry x="499" y="560" width="180" height="120" as="geometry" />
        </mxCell>
        <mxCell id="l98Kh_5DMOMrPFNrD7ur-66" value="&lt;font color=&quot;#fafafa&quot;&gt;Id_User&lt;/font&gt;" style="text;strokeColor=#666666;fillColor=#463e7e;align=left;verticalAlign=middle;spacingLeft=4;spacingRight=4;overflow=hidden;points=[[0,0.5],[1,0.5]];portConstraint=eastwest;rotatable=0;whiteSpace=wrap;html=1;gradientColor=#a95151;" vertex="1" parent="l98Kh_5DMOMrPFNrD7ur-65">
          <mxGeometry y="30" width="180" height="30" as="geometry" />
        </mxCell>
        <mxCell id="l98Kh_5DMOMrPFNrD7ur-67" value="&lt;font color=&quot;#fafafa&quot;&gt;Id_Permission&lt;/font&gt;" style="text;strokeColor=#666666;fillColor=#463e7e;align=left;verticalAlign=middle;spacingLeft=4;spacingRight=4;overflow=hidden;points=[[0,0.5],[1,0.5]];portConstraint=eastwest;rotatable=0;whiteSpace=wrap;html=1;gradientColor=#a95151;" vertex="1" parent="l98Kh_5DMOMrPFNrD7ur-65">
          <mxGeometry y="60" width="180" height="30" as="geometry" />
        </mxCell>
        <mxCell id="l98Kh_5DMOMrPFNrD7ur-68" value="Level" style="text;strokeColor=none;fillColor=none;align=left;verticalAlign=middle;spacingLeft=4;spacingRight=4;overflow=hidden;points=[[0,0.5],[1,0.5]];portConstraint=eastwest;rotatable=0;whiteSpace=wrap;html=1;" vertex="1" parent="l98Kh_5DMOMrPFNrD7ur-65">
          <mxGeometry y="90" width="180" height="30" as="geometry" />
        </mxCell>
        <mxCell id="l98Kh_5DMOMrPFNrD7ur-69" value="" style="endArrow=ERzeroToMany;html=1;rounded=0;startArrow=ERmandOne;startFill=0;endFill=0;exitX=1.003;exitY=0.107;exitDx=0;exitDy=0;exitPerimeter=0;entryX=-0.007;entryY=0.061;entryDx=0;entryDy=0;entryPerimeter=0;" edge="1" parent="1" source="l98Kh_5DMOMrPFNrD7ur-56" target="l98Kh_5DMOMrPFNrD7ur-47">
          <mxGeometry width="50" height="50" relative="1" as="geometry">
            <mxPoint x="489" y="760" as="sourcePoint" />
            <mxPoint x="539" y="710" as="targetPoint" />
          </mxGeometry>
        </mxCell>
        <mxCell id="l98Kh_5DMOMrPFNrD7ur-70" value="" style="endArrow=ERoneToMany;html=1;rounded=0;startArrow=ERoneToMany;startFill=0;endFill=0;exitX=1.007;exitY=0.062;exitDx=0;exitDy=0;exitPerimeter=0;entryX=-0.007;entryY=0.14;entryDx=0;entryDy=0;entryPerimeter=0;" edge="1" parent="1" source="l98Kh_5DMOMrPFNrD7ur-47" target="l98Kh_5DMOMrPFNrD7ur-65">
          <mxGeometry width="50" height="50" relative="1" as="geometry">
            <mxPoint x="449" y="580" as="sourcePoint" />
            <mxPoint x="488" y="580" as="targetPoint" />
          </mxGeometry>
        </mxCell>
        <mxCell id="l98Kh_5DMOMrPFNrD7ur-71" value="" style="endArrow=ERzeroToMany;html=1;rounded=0;startArrow=ERmandOne;startFill=0;endFill=0;exitX=0.5;exitY=0;exitDx=0;exitDy=0;entryX=0.554;entryY=1.007;entryDx=0;entryDy=0;entryPerimeter=0;" edge="1" parent="1" source="l98Kh_5DMOMrPFNrD7ur-61" target="l98Kh_5DMOMrPFNrD7ur-68">
          <mxGeometry width="50" height="50" relative="1" as="geometry">
            <mxPoint x="519" y="710" as="sourcePoint" />
            <mxPoint x="558" y="710" as="targetPoint" />
          </mxGeometry>
        </mxCell>
        <mxCell id="l98Kh_5DMOMrPFNrD7ur-72" value="&lt;font color=&quot;#000000&quot;&gt;Level&lt;/font&gt;" style="ellipse;whiteSpace=wrap;html=1;fontSize=14;fontColor=#FAFAFA;fillColor=#FFFFFF;" vertex="1" parent="1">
          <mxGeometry x="480.25" y="345" width="47.5" height="30" as="geometry" />
        </mxCell>
      </root>
    </mxGraphModel>
  </diagram>
</mxfile>
